<svg id="Layer_1" data-name="Layer 1" xmlns="http://www.w3.org/2000/svg" viewBox="0 0 2001.22 2001.22"><defs><style>.cls-1{fill:#6400aa;stroke:#aa00a2;stroke-miterlimit:10;}</style></defs><path class="cls-1" d="M1757.22,897.13,2000,719.78,1905.25,491l-297.08,46.27L1462.69,391.83,1509,94.75,1280.22,0,1102.87,242.78H897.13L719.78,0,491,94.75l46.27,297.08L391.83,537.31,94.75,491,0,719.78,242.78,897.13v205.74L0,1280.22,94.75,1509l297.08-46.27,145.48,145.48L491,1905.25,719.78,2000l177.35-242.78h205.74L1280.22,2000,1509,1905.25l-46.27-297.08,145.48-145.48L1905.25,1509,2000,1280.22l-242.78-177.35Zm-757.22,615c-282.86,0-512.16-229.3-512.16-512.16S717.14,487.84,1000,487.84s512.16,229.3,512.16,512.16S1282.86,1512.16,1000,1512.16Z" transform="translate(0.61 0.61)"/></svg>